<svg width="20" height="20" viewBox="0 0 20 20" fill="none" xmlns="http://www.w3.org/2000/svg">
<path d="M17.1696 5.19999H15.2V3.10959C15.2 1.61519 14.0208 0.399994 12.5224 0.399994H7.47799C5.97879 0.399994 4.79999 1.61519 4.79999 3.10959V5.19999H2.82999C1.48759 5.19999 0.399994 6.23639 0.399994 7.57479V16.7776C0.399994 18.1156 1.48759 19.2 2.82999 19.2H17.1696C18.5116 19.2 19.6 18.1156 19.6 16.7772V7.57479C19.6 6.23639 18.5116 5.19999 17.1696 5.19999ZM6.39999 3.10959C6.39999 2.54999 6.91679 1.99999 7.47799 1.99999H12.5224C13.082 1.99999 13.6 2.54999 13.6 3.10959V5.19999H6.39999V3.10959ZM14.4 14H11.6V16.8H8.39999V14H5.59999V10.8H8.39999V7.99999H11.6V10.8H14.4V14Z" fill="#0E7ECD"/>
</svg>
