<svg width="20" height="20" viewBox="0 0 20 20" fill="none" xmlns="http://www.w3.org/2000/svg">
<path d="M17.1696 5.19999H15.2V3.10959C15.2 1.61519 14.0208 0.399994 12.5224 0.399994H7.47802C5.97882 0.399994 4.80002 1.61519 4.80002 3.10959V5.19999H2.83002C1.48762 5.19999 0.400024 6.23639 0.400024 7.57479V16.7776C0.400024 18.1156 1.48762 19.2 2.83002 19.2H17.1696C18.5116 19.2 19.6 18.1156 19.6 16.7772V7.57479C19.6 6.23639 18.5116 5.19999 17.1696 5.19999ZM6.40002 3.10959C6.40002 2.54999 6.91682 1.99999 7.47802 1.99999H12.5224C13.082 1.99999 13.6 2.54999 13.6 3.10959V5.19999H6.40002V3.10959ZM14.4 14H11.6V16.8H8.40002V14H5.60002V10.8H8.40002V7.99999H11.6V10.8H14.4V14Z" fill="#9798C2"/>
</svg>
