<svg width="47" height="41" viewBox="0 0 47 41" fill="none" xmlns="http://www.w3.org/2000/svg">
<path fill-rule="evenodd" clip-rule="evenodd" d="M22.8974 4.63392C22.8974 3.4998 23.0513 2.40136 23.3399 1.356C28.068 8.52775 31.2287 12.6322 39.6403 16.9323C38.5307 17.2224 37.3621 17.3776 36.1538 17.3776C28.7581 17.3776 22.8974 11.5977 22.8974 4.63392ZM20.4872 4.63392C20.4872 3.01926 20.746 1.46181 21.2257 0C18.1281 0.14902 15.0852 0.884395 12.2653 2.16964C9.75527 3.20767 7.55772 4.85958 5.8819 6.96806C4.35161 9.18284 3.50344 11.7838 3.43887 14.4596C3.42495 15.0745 3.4333 15.6578 3.44138 16.2219C3.4699 18.2137 3.49503 19.9677 2.5247 22.0425C2.5247 22.0425 -0.343903 24.7047 0.0343743 26.8408C0.412652 28.9769 4.14814 29.5651 4.14814 29.5651C4.14814 38.1956 12.1368 37.6462 16.1241 36.8344C16.2047 36.818 16.2838 36.8015 16.3611 36.7849C17.5542 36.5292 18.3335 36.2655 18.3335 36.2655V37.8873C18.3335 37.8873 18.4165 38.1591 18.6727 38.5416C18.7408 38.6431 18.8211 38.7527 18.9153 38.8668C19.6633 39.7738 21.2888 40.9831 24.6381 40.9831C27.1615 41.1893 31.4805 39.4852 32.6255 37.0824V29.7335C36.0158 27.1193 38.7524 23.7425 39.5401 19.5073C38.4486 19.741 37.3154 19.8641 36.1538 19.8641C27.5758 19.8641 20.4872 13.1197 20.4872 4.63392ZM42.339 37.2701V28.5671C42.339 27.1938 43.4181 26.0805 44.7493 26.0805C46.0805 26.0805 47.1813 27.2023 46.975 28.5591C46.0918 34.3664 42.339 37.2701 42.339 37.2701ZM44.1467 24.8372C45.145 24.8372 45.9544 24.0023 45.9544 22.9723V20.3791L42.565 23.8758C42.8734 24.4492 43.4661 24.8372 44.1467 24.8372ZM42.339 17.8925V20.5924L45.9544 16.8626V14.1627L42.339 17.8925ZM42.339 5.56638V14.376L45.9544 10.6462V5.56638C45.9544 4.53645 45.145 3.70146 44.1467 3.70146C43.1484 3.70146 42.339 4.53645 42.339 5.56638Z" fill="#9F7CFE"/>
</svg>
